<?xml version="1.0" standalone="no"?>
<!DOCTYPE svg PUBLIC "-//W3C//DTD SVG 20010904//EN"
 "http://www.w3.org/TR/2001/REC-SVG-20010904/DTD/svg10.dtd">
<svg version="1.0" xmlns="http://www.w3.org/2000/svg"
 width="1280.000000pt" height="853.000000pt" viewBox="0 0 1280.000000 853.000000"
 preserveAspectRatio="xMidYMid meet">
<metadata>
Created by potrace 1.16, written by Peter Selinger 2001-2019
</metadata>
<g transform="translate(0.000000,853.000000) scale(0.100000,-0.100000)"
fill="#000000" stroke="none">
<path d="M0 4265 l0 -4265 6400 0 6400 0 0 4265 0 4265 -6400 0 -6400 0 0
-4265z m6225 3083 c3 -18 5 -58 3 -88 l-3 -55 305 0 305 0 3 48 3 47 50 0 49
0 0 -51 c0 -47 2 -50 23 -47 19 3 22 10 25 51 l3 47 50 0 49 0 0 -51 0 -50
108 1 c59 1 212 1 340 1 l233 -1 -3 -62 -3 -63 -670 -3 c-368 -1 -682 -2 -697
-2 l-28 0 0 -105 0 -105 70 0 c83 0 88 10 37 74 -19 23 -42 53 -52 69 l-17 27
651 0 651 0 0 -135 0 -135 286 0 286 0 -3 -2360 -4 -2360 -22 0 c-26 0 -31
-18 -7 -27 9 -3 20 0 25 8 5 8 9 -301 9 -723 l0 -738 -40 0 c-28 0 -40 4 -41
15 -1 8 -2 20 -3 27 -1 7 10 15 24 18 l25 6 0 184 c0 184 0 185 -22 188 -20 3
-23 10 -24 53 -1 27 -2 55 -3 62 -1 6 10 14 24 17 l25 5 0 185 c0 184 0 185
-22 188 -13 2 -24 8 -24 13 -11 79 -3 117 24 121 22 3 22 6 22 183 l0 180 -40
7 c-22 4 -167 7 -322 7 l-283 1 0 235 0 236 -157 -3 -158 -3 -3 -232 -2 -233
-43 -1 c-86 -3 -132 1 -135 11 -2 6 -9 4 -18 -4 -11 -12 -14 -62 -14 -265 l0
-251 -312 2 -313 3 -3 83 -3 82 33 1 c18 1 56 2 83 3 l50 1 3 87 3 88 52 -2
c51 -1 51 -2 9 -5 l-43 -4 3 -82 3 -82 43 -3 42 -3 0 65 c0 36 5 68 10 71 6 4
10 -20 10 -64 l0 -70 125 0 125 0 1 92 c1 106 16 84 18 -25 1 -61 3 -68 21
-68 19 0 20 7 20 170 l0 170 -718 0 -719 0 5 58 c3 31 10 60 16 64 8 6 7 8 -1
8 -7 0 -13 5 -13 10 0 6 11 10 25 10 24 0 25 -3 25 -60 l0 -60 50 0 c33 0 50
4 50 13 0 8 17 12 52 12 l53 0 3 137 3 138 -56 0 c-30 0 -55 3 -55 8 0 4 28 7
63 7 60 0 62 1 65 28 l3 27 -115 0 -116 0 0 -119 0 -119 -33 3 -33 3 4 -60 c3
-37 0 -69 -8 -84 l-13 -24 -421 -2 -421 -3 -3 -167 -2 -168 112 3 113 2 3 93
3 92 -68 2 -68 2 68 3 c65 4 67 5 68 31 l2 27 4 -27 c4 -27 6 -28 69 -28 63 0
64 1 65 28 l2 27 4 -27 c4 -27 7 -28 71 -30 l67 -2 -68 -3 -68 -4 3 -92 3 -92
65 -2 c36 -1 89 -2 118 -2 l53 -1 -3 -82 -3 -83 -307 -3 -308 -2 0 -165 0
-165 115 0 115 0 0 90 0 90 -67 2 -68 1 65 6 c58 5 65 8 71 31 l7 25 1 -28 c1
-28 1 -28 63 -25 57 3 63 5 69 28 l7 25 1 -27 c1 -27 2 -28 69 -30 l67 -2 -67
-3 -68 -4 0 -89 0 -90 65 0 65 0 2 63 2 62 3 -62 4 -63 50 0 50 0 -3 -88 -3
-87 -310 0 -310 0 0 534 c0 294 -1 527 -3 518 -3 -15 -20 -17 -143 -17 l-139
0 0 745 c0 518 3 745 11 745 5 0 7 5 4 10 -4 6 7 10 24 10 31 0 42 -14 19 -23
-7 -3 13 -6 44 -6 31 -1 59 -5 63 -10 3 -5 6 -38 6 -74 1 -57 4 -67 29 -91 29
-27 47 -35 34 -15 -4 8 0 7 15 0 32 -18 121 -11 122 8 0 9 5 3 10 -14 11 -37
8 -204 -3 -211 -5 -3 -5 -11 1 -17 5 -7 10 -16 10 -22 1 -6 29 -10 64 -10 l62
0 2 188 c1 103 4 195 7 203 3 7 1 14 -5 14 -6 0 -7 5 -4 11 5 6 12 4 21 -8 13
-17 15 -17 30 2 14 16 16 17 11 3 -6 -16 4 -18 116 -20 82 -1 98 -3 50 -5
l-71 -4 1 -192 2 -192 62 -3 62 -3 3 133 3 133 101 -3 101 -2 6 142 c4 79 7
475 7 881 l0 737 -342 1 c-189 1 -347 2 -353 4 -5 1 -14 3 -20 4 -5 2 -32 2
-60 2 l-50 -1 35 19 c22 12 39 16 45 10 25 -24 28 7 5 50 -13 25 -29 27 -56 5
-18 -14 -18 -15 5 -4 19 10 26 9 39 -4 16 -16 13 -26 -10 -30 -7 -1 -19 -5
-26 -10 -7 -4 -19 -5 -27 -2 -8 3 -14 0 -12 -6 1 -5 -5 -12 -13 -13 -8 -2 -23
-6 -32 -10 -13 -5 -18 -2 -19 11 0 18 -1 17 -9 -1 -7 -16 -9 -17 -9 -3 -1 20
12 29 52 37 17 4 32 11 34 17 4 13 -26 12 -47 -1 -24 -15 -40 -14 -40 1 0 9 4
13 9 9 5 -3 12 4 16 15 6 19 18 25 40 20 6 -1 6 2 2 6 -12 12 -37 14 -37 3 0
-6 -4 -7 -10 -4 -23 14 -7 25 38 25 33 0 43 -3 32 -10 -8 -5 -12 -12 -8 -15 3
-3 12 1 20 9 13 13 18 13 36 0 18 -13 20 -12 15 6 -5 19 -1 20 58 18 l64 -3 3
-72 3 -73 64 0 65 0 2 78 2 77 3 -78 4 -78 62 3 62 3 6 75 5 75 2 -77 2 -78
65 0 65 0 0 76 0 76 100 -3 c55 -2 103 0 106 4 4 4 -41 7 -99 7 l-107 0 0 80
0 81 -62 -3 -63 -3 -6 -80 -5 -80 -2 78 -2 77 -65 0 -64 0 -4 -77 -3 -78 -2
83 -2 82 -65 0 -65 0 0 -80 0 -80 -101 0 c-69 0 -98 3 -93 11 3 6 14 9 24 6
13 -3 16 0 13 14 -5 17 -6 17 -26 -1 -11 -11 -23 -18 -26 -15 -4 2 -13 0 -21
-5 -9 -5 -19 -5 -27 2 -9 7 -13 7 -13 -1 0 -7 -4 -9 -10 -6 -12 7 -14 36 -2
33 17 -5 72 12 72 23 0 8 -4 8 -15 -1 -11 -10 -18 -10 -29 -1 -11 9 -15 9 -18
-1 -3 -8 -7 -6 -11 5 -3 9 -2 17 3 17 6 0 10 8 11 18 0 10 3 12 6 5 3 -9 10
-10 23 -3 13 7 21 7 25 0 10 -16 25 -2 18 16 -5 13 -7 13 -14 2 -7 -10 -9 -10
-9 2 0 14 -61 90 -71 90 -4 0 -4 -37 0 -64 0 -4 13 -5 27 -2 18 5 24 3 18 -5
-5 -8 -3 -9 6 -4 8 5 11 3 8 -6 -5 -16 -37 -20 -54 -7 -17 12 -24 -38 -24
-173 l0 -119 -40 0 -40 0 0 840 0 840 278 2 277 3 3 133 3 132 659 0 660 0 0
23 0 22 -687 0 -688 0 -3 63 -3 62 146 0 145 0 0 50 0 50 90 0 90 0 0 -50 0
-50 110 0 110 0 0 50 0 50 55 0 55 0 0 -50 0 -51 83 3 82 3 3 88 3 87 149 0
149 0 6 -32z m-1455 -2414 c0 -23 3 -24 60 -24 57 0 60 1 60 24 0 14 5 28 10
31 6 4 10 -7 10 -24 l0 -31 68 -2 67 -2 -67 -3 -68 -4 0 -161 0 -160 69 4 c38
2 67 0 65 -4 -3 -4 -80 -7 -172 -7 -92 1 -157 4 -144 6 19 4 22 11 23 51 1 26
1 53 0 60 -1 6 3 12 9 12 6 0 10 -23 10 -55 l0 -55 60 0 59 0 3 58 c2 31 2
101 0 155 l-3 97 -60 0 -59 0 0 -90 c0 -52 -4 -90 -10 -90 -6 0 -8 34 -5 90
l5 90 -72 2 -73 2 68 3 67 4 0 30 c0 18 4 28 10 24 6 -3 10 -17 10 -31z m0
-499 c0 -24 3 -25 60 -25 57 0 60 1 60 25 0 14 5 25 10 25 6 0 10 -11 10 -25
0 -24 3 -25 68 -27 l67 -2 -68 -3 -68 -4 3 -164 3 -165 -82 0 -83 0 0 65 c0
37 4 65 10 65 6 0 10 -27 10 -60 l0 -60 60 0 59 0 3 63 c2 34 2 104 0 155 l-3
92 -60 0 -59 0 0 -90 c0 -60 -4 -90 -11 -90 -8 0 -9 27 -4 95 l7 95 -74 2 -73
2 68 3 c64 4 67 5 67 28 0 14 5 25 10 25 6 0 10 -11 10 -25z m-1 -492 c-6 -40
0 -44 64 -41 57 3 62 5 61 26 -1 12 3 22 7 22 5 0 9 -11 9 -25 0 -24 3 -25 68
-27 l67 -2 -67 -3 -68 -4 -2 -162 -3 -162 -54 -3 c-92 -5 -97 -2 -99 68 0 33
3 60 9 60 5 0 9 -27 9 -60 l0 -60 60 0 60 0 0 58 c0 31 2 102 3 157 l2 100
-62 3 -63 3 0 -96 c0 -68 -3 -94 -11 -89 -8 5 -9 34 -4 95 l7 89 -74 2 -73 2
68 3 c64 4 67 5 67 28 0 14 5 25 10 25 6 0 9 -3 9 -7z m3061 -2038 c0 -24 2
-25 65 -25 64 0 65 0 66 28 l2 27 4 -27 c4 -27 7 -28 71 -30 l67 -2 -67 -3
-68 -4 0 -164 0 -165 -81 0 -81 0 3 163 4 162 -70 6 -70 5 68 2 c64 2 67 3 67
27 0 14 5 25 10 25 6 0 10 -11 10 -25z m-1918 -132 l2 -98 3 90 c2 49 8 94 13
99 7 7 10 6 10 -1 0 -7 14 -10 35 -8 20 2 35 -1 35 -7 0 -6 -10 -8 -23 -5 -41
11 -49 -4 -45 -84 l3 -74 53 -3 52 -3 0 87 c0 72 -2 85 -15 80 -8 -3 -15 -1
-15 5 0 6 10 9 23 7 20 -3 22 -9 27 -88 l5 -85 38 -3 37 -3 0 96 c0 62 4 94
10 90 6 -3 10 -46 10 -96 0 -89 0 -89 25 -89 26 0 26 0 23 -82 l-3 -83 -310 0
-310 0 -3 83 -3 82 36 0 35 0 0 75 c0 43 4 75 10 75 6 0 10 -32 10 -75 l0 -75
40 0 40 0 0 71 c0 44 4 68 10 64 6 -3 10 -35 10 -71 l0 -64 50 0 50 0 0 88 c0
49 3 92 7 95 18 18 23 -1 25 -90z m1153 -751 l-5 -22 -308 2 -307 3 -3 88 -3
87 86 0 85 0 0 79 0 80 -52 4 -53 3 63 2 62 2 0 -85 0 -85 45 0 45 0 0 59 c0
33 5 63 10 66 6 4 10 -18 10 -59 l0 -66 125 0 125 0 0 65 c0 37 4 65 10 65 6
0 10 -28 10 -65 0 -58 2 -65 20 -65 19 0 20 7 20 153 0 85 3 157 8 161 8 9 15
-438 7 -472z m-1367 391 c-16 -4 -18 -18 -18 -119 l0 -114 40 0 40 0 0 85 0
85 38 -1 c30 -2 32 -3 10 -6 -28 -4 -28 -5 -28 -84 l0 -79 50 0 50 0 0 85 c0
49 4 85 10 85 13 0 19 -31 23 -110 l3 -65 2 75 c1 41 7 82 12 90 11 18 11 18
11 -82 l0 -78 55 0 54 0 0 85 c0 50 4 85 10 85 6 0 10 -35 10 -85 l0 -85 40 0
40 0 0 76 c0 47 4 73 10 69 6 -3 10 -37 10 -76 0 -67 1 -69 25 -69 l26 0 -3
-87 -3 -88 -310 0 -310 0 -3 88 -3 87 36 0 35 0 0 113 c0 63 3 117 7 120 3 4
16 6 27 6 17 -1 18 -2 4 -6z m-928 -878 l0 -75 70 0 70 0 2 78 2 77 3 -77 4
-78 66 0 c37 0 64 -2 61 -5 -3 -3 -67 -6 -142 -6 l-136 0 0 -179 0 -180 70 0
70 0 2 173 2 172 3 -173 3 -172 145 0 145 0 0 181 0 181 -75 -4 -75 -3 2 85 2
85 5 -75 6 -75 68 -3 67 -3 2 78 2 78 5 -75 6 -75 70 -6 70 -5 -72 -2 -73 -2
0 -180 0 -180 205 0 c188 0 205 1 206 18 1 16 2 16 6 -1 4 -16 35 -17 469 -17
l464 0 2 173 2 172 3 -172 3 -173 245 0 245 0 2 173 2 172 3 -172 3 -173 551
0 c486 0 550 -2 556 -15 3 -9 3 -18 0 -21 -2 -3 -199 -5 -436 -6 -237 0 -434
-5 -437 -10 -3 -4 -10 -5 -16 -2 -18 11 -442 12 -455 1 -9 -6 -13 -6 -13 2 0
8 -105 11 -400 10 -230 -1 -400 -6 -400 -11 0 -5 -6 -6 -12 -2 -19 12 -161 13
-175 2 -7 -5 -18 -6 -25 -1 -7 4 -294 9 -638 10 -344 1 -631 2 -637 2 -7 1
-13 10 -13 21 0 18 8 20 113 22 l112 3 1 159 c1 88 -1 167 -4 178 -4 15 -15
18 -71 20 l-66 2 70 5 70 6 0 73 c0 39 3 72 8 72 4 0 7 -34 7 -75z"/>
<path d="M5084 6976 c-12 -32 7 -36 162 -36 l155 0 -3 23 c-3 22 -6 22 -156
25 -127 2 -153 0 -158 -12z"/>
<path d="M5860 6965 l0 -26 158 3 c149 3 157 4 157 23 0 19 -8 20 -157 23
l-158 3 0 -26z"/>
<path d="M6524 6976 c-12 -32 7 -36 162 -36 l155 0 -3 23 c-3 22 -6 22 -156
25 -127 2 -153 0 -158 -12z"/>
<path d="M7330 6965 l0 -26 158 3 c149 3 157 4 157 23 0 19 -8 20 -157 23
l-158 3 0 -26z"/>
<path d="M5087 6924 c-4 -4 -7 -43 -7 -86 l0 -78 45 0 46 0 -3 83 -3 82 -35 3
c-20 2 -39 0 -43 -4z"/>
<path d="M5187 6913 c-4 -3 -7 -39 -7 -80 l0 -73 60 0 60 0 0 80 0 80 -53 0
c-30 0 -57 -3 -60 -7z"/>
<path d="M7430 6840 l0 -80 60 0 60 0 0 80 0 80 -60 0 -60 0 0 -80z"/>
<path d="M7363 6483 c-9 -3 -13 -36 -13 -114 l0 -109 50 0 50 0 0 115 0 115
-37 -1 c-21 0 -44 -3 -50 -6z"/>
<path d="M7480 6375 l0 -115 45 0 45 0 0 115 0 115 -45 0 -45 0 0 -115z"/>
<path d="M7830 6374 l0 -115 48 3 47 3 3 113 3 112 -51 0 -50 0 0 -116z"/>
<path d="M7955 6477 c-3 -7 -4 -58 -3 -113 l3 -99 45 0 45 0 0 110 0 110 -43
3 c-29 2 -44 -1 -47 -11z"/>
<path d="M5680 6370 l0 -110 45 0 45 0 0 110 0 110 -45 0 -45 0 0 -110z"/>
<path d="M5794 6467 c-3 -8 -3 -56 -2 -108 l3 -94 48 -3 47 -3 0 110 0 111
-45 0 c-29 0 -48 -5 -51 -13z"/>
<path d="M5940 6370 l0 -110 45 0 45 0 0 110 0 110 -45 0 -45 0 0 -110z"/>
<path d="M6060 6370 l0 -110 45 0 45 0 0 110 0 110 -45 0 -45 0 0 -110z"/>
<path d="M6507 6351 l6 -119 -52 1 c-48 2 -52 0 -47 -18 3 -11 6 -42 6 -69 0
-27 3 -46 7 -42 4 4 6 31 5 61 l-1 55 39 0 c33 0 40 -3 40 -20 0 -11 -6 -20
-12 -20 -10 0 -10 -2 0 -9 7 -4 12 -21 10 -37 -3 -28 -2 -29 50 -32 l52 -3 0
60 c0 34 4 61 10 61 6 0 10 -27 10 -60 l0 -60 45 0 45 0 0 58 c1 63 8 230 12
277 l3 30 -117 3 -116 3 5 -120z"/>
<path d="M6868 6298 c2 -95 5 -179 7 -185 5 -15 101 -18 109 -5 3 5 6 75 7
155 0 81 5 150 10 153 5 3 9 16 9 30 0 23 -2 24 -73 24 l-72 0 3 -172z"/>
<path d="M7120 6365 l0 -105 54 0 c30 0 57 3 59 8 3 4 7 50 9 102 l3 95 -62 3
-63 3 0 -106z"/>
<path d="M4840 6324 l0 -95 -70 2 c-39 1 -73 -1 -77 -4 -3 -4 28 -7 70 -7 l77
0 0 -60 0 -60 65 0 65 0 0 60 c0 33 4 60 9 60 5 0 9 -23 9 -50 1 -28 3 -53 6
-58 2 -4 28 -7 58 -7 l53 0 3 158 3 158 -63 -3 -63 -3 4 -86 c2 -56 -1 -89 -8
-93 -8 -5 -11 21 -11 88 l0 96 -65 0 -65 0 0 -96z"/>
<path d="M5128 6323 c-2 -54 -2 -126 0 -160 l3 -63 59 0 60 0 0 58 c1 31 2
103 3 160 l2 102 -62 0 -62 0 -3 -97z"/>
<path d="M4692 5829 l3 -232 58 1 c31 0 61 1 66 1 5 1 12 9 14 19 4 13 5 11 6
-5 1 -21 6 -23 66 -23 l65 0 0 195 -1 195 -65 0 -66 0 3 -32 c5 -71 -2 -222
-9 -211 -4 7 -7 65 -7 130 l1 118 225 5 c123 3 220 7 214 9 -5 2 -14 3 -19 2
-5 -1 -4 5 4 13 18 23 28 20 25 -9 -3 -23 0 -25 38 -27 l42 -1 -40 -6 c-38 -6
-40 -8 -43 -43 l-4 -38 51 0 51 0 0 85 0 85 -340 0 -340 0 2 -231z"/>
<path d="M6410 5826 l0 -233 45 -1 c32 -1 45 3 45 13 0 7 -6 16 -12 18 -8 4
-7 6 3 6 9 1 19 -8 22 -19 4 -16 14 -20 51 -20 l46 0 0 155 c0 97 4 155 10
155 6 0 10 -57 10 -150 l0 -150 45 0 45 0 1 63 c0 34 0 82 -1 105 -1 24 1 66
5 93 6 41 9 48 21 38 11 -9 14 -8 14 4 0 9 10 21 21 28 13 6 19 7 15 1 -3 -6
0 -12 6 -15 7 -2 9 -8 5 -13 -4 -5 -12 -2 -17 6 -5 8 -12 11 -17 7 -13 -14 19
-25 59 -22 l38 4 0 -152 0 -152 60 3 60 4 2 136 c1 144 1 148 11 172 3 8 8 24
10 35 4 18 5 18 6 -2 0 -13 6 -23 13 -23 6 0 4 -6 -6 -13 -16 -11 -11 -13 34
-14 52 -2 52 -2 47 26 -3 16 -1 34 6 41 10 10 7 11 -13 5 -19 -5 -21 -4 -10 4
8 6 24 11 34 11 16 0 17 -3 8 -12 -8 -8 -12 -47 -12 -110 l0 -98 61 0 60 0 -3
150 -3 150 -412 0 -413 0 0 -234z"/>
<path d="M5130 5785 l0 -195 60 0 c50 0 60 3 60 18 0 9 1 96 3 192 l2 175 -62
3 -63 3 0 -196z"/>
<path d="M7352 5853 l3 -108 48 -3 47 -3 0 110 0 111 -50 0 -51 0 3 -107z"/>
<path d="M7480 5850 l0 -110 45 0 45 0 0 110 0 110 -45 0 -45 0 0 -110z"/>
<path d="M7830 5849 l0 -110 48 3 47 3 3 108 3 107 -51 0 -50 0 0 -111z"/>
<path d="M7952 5853 l3 -108 45 0 45 0 3 108 3 107 -51 0 -51 0 3 -107z"/>
<path d="M4989 5908 c0 -4 0 -271 0 -290 1 -15 11 -18 61 -18 l60 0 0 155 0
155 -60 0 c-33 0 -60 -1 -61 -2z"/>
<path d="M5674 5896 c-3 -8 -4 -41 -2 -73 l3 -58 53 -3 52 -3 0 75 0 76 -50 0
c-35 0 -52 -5 -56 -14z"/>
<path d="M5790 5835 l0 -76 53 3 52 3 0 70 0 70 -52 3 -53 3 0 -76z"/>
<path d="M5934 5896 c-3 -7 -4 -40 -2 -72 l3 -59 53 -3 52 -3 0 75 0 76 -50 0
c-34 0 -52 -5 -56 -14z"/>
<path d="M5674 5737 c-3 -8 -4 -41 -2 -73 l3 -59 53 -3 53 -3 -3 73 -3 73 -48
3 c-34 2 -49 -1 -53 -11z"/>
<path d="M5797 5744 c-4 -4 -7 -38 -7 -76 l0 -68 55 0 56 0 -3 73 -3 72 -45 3
c-25 2 -49 0 -53 -4z"/>
<path d="M5937 5743 c-4 -3 -7 -37 -7 -75 l0 -68 55 0 55 0 0 75 0 75 -48 0
c-27 0 -52 -3 -55 -7z"/>
<path d="M7290 5315 l0 -235 155 0 155 0 0 235 0 235 -155 0 -155 0 0 -235z"/>
<path d="M5479 5455 c0 -6 -2 -56 -5 -112 l-6 -103 86 0 86 0 -37 68 c-34 63
-122 168 -124 147z"/>
<path d="M5677 5453 c-2 -5 -5 -54 -6 -111 l-2 -103 48 3 48 3 -4 78 c-1 42 1
77 5 78 5 0 32 2 59 4 28 1 53 3 58 4 4 0 7 12 7 26 l0 25 -104 0 c-58 0 -107
-3 -109 -7z"/>
<path d="M5940 5350 l0 -110 55 0 55 0 0 75 0 75 -51 0 c-27 0 -48 3 -45 8 2
4 30 7 62 7 l57 -1 -2 -82 -2 -82 40 0 41 0 0 110 0 110 -105 0 -105 0 0 -110z"/>
<path d="M7114 5437 c-3 -8 -4 -52 -2 -98 l3 -84 58 -3 57 -3 0 101 0 100 -55
0 c-37 0 -57 -4 -61 -13z"/>
<path d="M7680 5315 l0 -95 -26 0 c-20 0 -24 -3 -16 -13 6 -7 12 -37 15 -67
l3 -55 2 63 c3 80 22 82 22 2 l0 -60 69 0 70 0 4 33 4 32 1 -33 2 -33 63 3 62
3 6 60 6 60 1 -62 2 -63 65 0 65 0 0 60 0 59 68 4 67 3 -67 2 -68 2 0 95 0 95
-65 0 -65 0 0 -97 c0 -53 -3 -93 -6 -90 -4 3 -6 47 -5 97 l2 90 -65 0 -65 0
-4 -92 -3 -93 -2 93 -2 92 -70 0 -70 0 0 -95z"/>
<path d="M6510 5304 c0 -80 -1 -84 -17 -69 -15 16 -17 16 -26 0 -8 -15 -10
-15 -30 2 -16 14 -19 15 -15 3 4 -11 -1 -16 -13 -17 -11 -1 -17 3 -13 8 4 7
-3 9 -17 7 -23 -3 -24 -7 -24 -76 l0 -73 72 2 c40 1 73 6 73 10 0 5 -7 9 -15
9 -8 0 -12 6 -9 14 3 8 -2 16 -13 19 -10 3 -4 5 15 6 29 1 32 -2 32 -29 0 -29
1 -30 50 -30 l50 0 0 60 c0 77 18 79 22 3 l3 -58 43 -3 42 -3 0 60 0 61 75 0
75 0 0 -60 0 -60 60 0 60 0 0 61 0 62 45 -5 c24 -3 42 -2 39 3 -3 5 -23 9 -45
9 l-39 0 0 85 0 85 -60 0 -60 0 0 -85 0 -85 -75 0 -75 0 0 85 0 85 -45 0 -45
0 0 -85 c0 -50 -4 -85 -10 -85 -6 0 -10 35 -10 85 l0 85 -50 0 -50 0 0 -86z"/>
<path d="M7058 5088 c37 -37 23 -38 -348 -38 l-360 0 2 -236 3 -236 220 2
c200 1 255 7 227 24 -6 4 -7 20 -2 43 5 20 7 41 4 45 -3 4 0 8 7 8 8 0 8 4 1
13 -6 7 -10 52 -10 100 l1 87 34 0 33 0 0 -94 c0 -90 -1 -95 -22 -99 l-23 -4
23 -2 c20 -1 22 -6 22 -56 l0 -55 60 0 60 0 0 149 c0 134 -2 150 -17 154 -12
3 -8 5 9 6 14 0 28 6 30 13 2 6 10 8 16 4 17 -10 15 -318 -1 -328 -9 -6 -9 -8
1 -8 6 0 12 -9 12 -20 0 -20 -7 -20 -345 -20 l-345 0 0 -237 0 -236 221 6
c122 3 224 8 226 11 3 3 6 27 7 53 1 26 5 54 9 61 5 7 4 12 -2 12 -6 0 -10 34
-9 90 1 103 -12 93 119 90 46 -1 79 3 83 9 4 6 14 11 22 11 11 0 14 -20 14
-99 0 -86 -2 -100 -17 -104 -17 -4 -17 -5 0 -6 16 -1 18 -10 15 -83 l-3 -83
-342 3 -343 4 0 -236 0 -236 230 0 230 0 1 38 c1 20 0 47 -1 60 -1 18 4 22 29
22 l30 0 -1 -57 -2 -58 62 -3 62 -3 0 155 c0 92 4 157 10 161 6 3 10 16 10 28
0 20 0 20 15 1 10 -13 14 -46 15 -111 0 -77 -3 -94 -17 -102 -17 -10 -17 -10
0 -11 15 0 17 -10 16 -80 l-1 -80 -342 0 -341 0 0 -235 c0 -149 4 -235 10
-236 6 0 37 0 70 1 33 1 85 3 115 4 l55 1 3 153 c1 90 6 152 12 152 10 0 13
-76 10 -227 l-1 -73 45 0 46 0 0 128 c0 70 5 145 12 167 6 22 10 45 9 50 -1 6
1 6 6 2 4 -5 8 -14 8 -20 0 -7 17 -13 40 -13 34 -1 35 -1 7 3 -24 3 -32 8 -28
19 3 8 0 14 -6 14 -6 0 -9 2 -7 5 3 2 16 1 29 -2 22 -6 23 -7 4 -14 -16 -6
-14 -8 9 -8 65 -2 67 -6 67 -176 l0 -155 60 0 60 0 0 149 c0 105 4 156 13 174
9 18 17 23 24 16 6 -6 19 -6 35 0 14 5 29 7 32 4 3 -4 6 1 6 10 0 9 3 18 8 20
4 3 6 -44 4 -104 l-3 -109 60 0 61 0 0 99 0 100 -27 3 c-26 3 -28 6 -25 43 5
52 8 55 43 55 19 0 29 5 29 15 0 8 -9 15 -19 15 -45 0 -51 9 -51 81 0 48 -4
69 -12 71 -7 0 -24 1 -38 2 -25 1 -25 1 -26 106 l0 105 3 -96 4 -97 37 -3 c83
-8 82 -9 82 102 0 94 -1 99 -22 104 -18 5 -23 13 -23 38 -3 174 -6 247 -12
246 -5 -1 -23 -1 -40 0 l-33 1 2 108 2 107 3 -98 c4 -111 6 -113 78 -103 l45
7 0 99 c0 96 0 98 -25 104 l-25 6 0 141 0 141 -37 -4 -38 -3 -1 115 0 115 3
-108 4 -108 57 3 57 3 0 100 c0 92 -2 100 -20 104 -11 2 -27 11 -35 21 -13 15
-17 15 -28 4 -10 -11 -10 -14 -1 -14 7 0 10 -3 6 -6 -13 -13 -27 7 -17 26 7
13 4 24 -11 44 l-20 26 75 0 c61 0 76 3 76 15 0 12 -13 15 -61 15 -38 0 -58 4
-54 10 8 13 -18 8 -27 -5 -5 -7 -8 -6 -8 0 0 6 -12 12 -27 13 -21 2 -24 -1
-15 -10z"/>
<path d="M7290 5020 c19 -16 41 -29 48 -30 7 0 11 -3 9 -7 -3 -5 34 -8 81 -7
l87 1 -80 -7 c-77 -6 -75 -6 40 -7 66 0 107 2 90 6 -20 4 -31 12 -32 26 -1 19
-1 19 11 3 7 -10 19 -18 26 -18 10 0 9 4 -1 17 -12 15 -12 16 4 10 10 -4 20
-7 21 -7 2 0 2 -18 0 -40 -1 -24 2 -40 9 -40 8 0 7 -4 -1 -12 -7 -7 -12 -18
-12 -25 0 -10 25 -13 110 -12 103 1 136 8 109 25 -6 3 -14 2 -18 -4 -4 -7 -12
-8 -21 -2 -13 8 -12 10 3 10 9 0 17 5 17 11 0 5 -6 7 -12 3 -10 -6 -10 -5 -1
7 10 12 10 18 0 28 -9 10 -8 11 6 6 9 -4 17 -11 17 -17 0 -5 4 -7 9 -4 5 3 11
-1 14 -9 4 -10 1 -12 -10 -8 -11 4 -14 2 -9 -5 5 -8 48 -12 133 -12 l126 0 -6
35 c-3 21 -2 33 4 30 5 -4 9 -1 9 4 0 6 -7 11 -15 11 -8 0 -15 -7 -15 -15 0
-14 -17 -16 -109 -14 -60 1 -115 6 -122 11 -11 8 -10 9 3 4 10 -3 20 -1 23 4
3 5 -3 11 -12 13 -17 4 -17 5 0 6 11 1 15 6 11 13 -4 7 -3 8 5 4 6 -4 9 -12 6
-17 -4 -5 31 -10 82 -11 l88 -2 -90 -6 -90 -6 99 -2 c84 -2 97 0 92 13 -3 9 0
15 8 15 8 0 20 2 28 5 11 4 14 -8 13 -54 0 -32 -3 -57 -7 -54 -5 2 -8 -1 -8
-7 0 -7 30 -10 85 -9 l85 1 0 89 0 89 -487 0 -487 0 34 -30z"/>
<path d="M5670 4923 c1 -16 2 -70 1 -122 l-1 -93 -34 6 c-20 4 -37 2 -41 -4
-3 -5 -2 -10 4 -10 5 0 12 -28 14 -62 l3 -63 2 63 c2 59 3 62 27 62 24 0 25
-3 25 -60 l0 -60 49 0 c27 0 51 4 53 9 2 5 26 12 53 14 28 3 51 6 53 6 1 1 2
64 2 141 l0 139 -55 -4 c-30 -2 -55 1 -55 6 0 5 29 9 65 9 63 0 65 1 65 25 l0
25 -116 0 -116 0 2 -27z"/>
<path d="M5932 4923 c3 -28 4 -28 70 -25 l67 3 3 -158 3 -158 38 -3 37 -3 1
43 c0 24 1 107 3 186 l2 142 -114 0 -113 0 3 -27z"/>
<path d="M5950 4885 c0 0 -2 -36 -3 -80 -2 -44 -6 -86 -10 -93 -5 -6 -4 -12 1
-12 4 0 7 -22 6 -50 l-3 -50 39 0 c71 0 70 -3 70 149 l0 136 -50 0 c-28 0 -50
0 -50 0z"/>
<path d="M7359 4803 c-2 -89 -2 -108 0 -175 l1 -38 50 0 50 0 0 150 0 150 -50
0 -50 0 -1 -87z"/>
<path d="M7479 4886 c-2 -3 -3 -53 -2 -113 1 -59 2 -125 3 -145 l0 -38 45 0
45 0 0 150 0 150 -43 0 c-24 0 -46 -2 -48 -4z"/>
<path d="M7836 4882 c-5 -8 -8 -123 -7 -234 l1 -58 50 0 50 0 0 150 0 150 -44
0 c-25 0 -47 -4 -50 -8z"/>
<path d="M7948 4798 c-2 -51 -2 -119 0 -150 l3 -58 44 0 45 0 0 150 0 150 -44
0 -45 0 -3 -92z"/>
<path d="M7295 4509 c30 -27 38 -29 53 -18 14 11 15 11 5 -1 -7 -8 -13 -17
-13 -21 0 -4 48 -7 107 -8 59 -1 110 -4 113 -7 2 -3 -44 -4 -103 -2 l-107 3 0
-33 0 -33 112 3 c109 3 112 4 118 27 3 14 12 27 20 29 13 5 13 3 1 -11 -11
-14 -11 -18 2 -23 8 -3 28 -4 44 -2 21 2 27 8 25 22 -3 15 -1 16 11 5 11 -10
12 -16 3 -21 -6 -4 14 -8 44 -8 82 0 89 0 95 -11 4 -5 57 -9 120 -9 l114 0 4
33 4 32 1 -32 c1 -18 8 -33 15 -34 6 -1 37 -2 68 -3 30 -1 61 -6 67 -10 9 -5
12 15 12 78 l0 86 -485 0 -486 0 36 -31z"/>
<path d="M5670 4330 l0 -120 -42 0 c-24 0 -38 -4 -31 -8 6 -4 14 -34 16 -67
l3 -60 2 63 c2 59 3 62 27 62 23 0 24 -4 27 -62 l3 -63 36 -3 c23 -2 42 3 52
12 10 10 34 16 67 16 l51 0 -3 138 -3 137 -52 -2 c-29 -1 -53 3 -53 7 0 5 28
10 63 12 59 3 62 4 62 28 l0 25 -112 3 -113 3 0 -121z"/>
<path d="M5935 4440 c-4 -6 -4 -21 -1 -33 5 -20 10 -22 71 -19 l65 4 0 -156 0
-156 40 0 40 0 0 58 c0 31 1 113 2 182 l2 125 -106 3 c-69 2 -109 -1 -113 -8z"/>
<path d="M5951 4370 c-9 -5 -12 -28 -9 -79 3 -40 1 -74 -3 -76 -4 -3 -5 -13
-3 -23 2 -9 6 -33 7 -52 2 -35 3 -35 55 -38 l52 -3 0 135 c0 75 -3 136 -7 137
-44 6 -82 6 -92 -1z"/>
<path d="M6870 4296 c0 -72 -3 -85 -17 -89 -17 -4 -17 -5 0 -6 14 -1 17 -11
17 -61 l0 -60 60 0 60 0 0 150 0 150 -60 0 -60 0 0 -84z"/>
<path d="M7358 4293 c-2 -48 -2 -116 0 -151 l3 -63 47 3 47 3 0 145 0 145 -47
3 -47 3 -3 -88z"/>
<path d="M7487 4373 c-6 -9 -9 -115 -8 -230 l1 -63 45 0 46 0 -3 148 -3 147
-37 3 c-20 2 -38 -1 -41 -5z"/>
<path d="M7830 4230 l0 -150 50 0 50 0 0 150 0 150 -50 0 -50 0 0 -150z"/>
<path d="M7950 4230 l0 -150 45 0 45 0 0 150 0 150 -45 0 -45 0 0 -150z"/>
<path d="M5600 4039 c-1 -10 -1 -351 0 -409 l0 -65 97 3 c72 3 100 7 106 18 5
8 23 14 42 14 l35 0 0 134 c0 79 4 137 10 141 6 3 10 22 10 41 0 30 -3 34 -25
34 -14 0 -25 4 -25 10 0 5 7 7 15 4 8 -4 15 -2 15 4 0 20 58 32 190 40 92 5
137 5 142 -2 5 -7 8 -4 8 7 0 16 -18 17 -249 17 -136 0 -276 3 -310 6 -33 4
-61 5 -61 3z"/>
<path d="M7282 4033 c-10 -4 -1 -18 27 -47 l40 -41 3 -110 3 -110 50 0 50 0 0
78 c0 55 4 77 13 77 8 0 12 -23 12 -80 l0 -80 45 0 44 0 3 88 3 87 117 -1 c65
0 121 -4 124 -7 8 -8 12 -40 13 -114 l1 -53 50 0 50 0 0 70 c0 90 18 92 22 3
l3 -68 43 -3 42 -3 0 68 c0 38 5 74 11 80 8 8 39 10 95 6 l84 -6 0 87 0 86
-467 -1 c-258 0 -474 -3 -481 -6z"/>
<path d="M5903 3963 c4 -3 7 -19 7 -36 0 -22 3 -28 9 -19 14 22 22 -31 21
-127 -3 -172 0 -217 11 -198 7 12 23 17 54 17 l45 0 1 48 c0 26 0 86 -1 135
-1 55 3 87 9 87 7 0 11 -51 11 -151 l0 -150 41 3 41 3 1 185 1 185 -115 5
c-62 3 -121 8 -129 11 -8 3 -12 4 -7 2z"/>
<path d="M7284 3495 c-3 -6 -3 -114 -2 -240 l3 -230 158 -3 157 -3 0 241 c0
132 -3 240 -7 240 -5 0 -75 1 -157 3 -94 1 -150 -2 -152 -8z"/>
<path d="M7681 3255 l-2 -195 70 0 c46 0 71 4 74 13 3 6 6 8 6 2 1 -6 26 -9
61 -7 l60 4 1 51 c0 29 1 98 3 155 l3 102 -64 0 -63 0 -2 -92 c-1 -55 -3 -70
-5 -38 -1 30 -5 88 -9 128 l-6 72 -62 0 -63 0 -2 -195z"/>
<path d="M7970 3427 c0 -13 5 -28 12 -35 9 -9 9 -12 0 -12 -10 0 -12 -38 -10
-157 l3 -158 63 -3 62 -3 0 196 -1 195 -65 0 c-60 0 -64 -1 -64 -23z"/>
<path d="M5670 3245 l0 -185 51 0 c47 0 51 2 46 21 -4 14 -2 18 6 11 7 -5 33
-7 60 -4 l47 4 0 134 0 134 -57 2 -58 1 65 6 c62 6 65 7 68 34 l3 27 -115 0
-116 0 0 -185z"/>
<path d="M5930 3405 c0 -17 7 -29 23 -35 12 -5 16 -9 7 -9 -12 -1 -15 -24 -17
-136 l-2 -135 55 0 54 0 0 134 0 135 -32 4 c-29 3 -28 4 9 5 l42 2 3 -152 3
-153 38 -3 c30 -3 37 0 37 15 0 10 1 93 3 186 l2 167 -112 0 -113 0 0 -25z"/>
<path d="M4981 3225 l0 -155 64 0 65 0 0 155 0 155 -65 0 -65 0 1 -155z"/>
<path d="M7090 3036 c0 -15 -30 -16 -366 -16 l-366 1 0 -231 c0 -127 1 -232 3
-234 2 -2 59 -1 127 2 l122 4 0 59 c0 76 18 77 22 2 l3 -58 43 -3 42 -3 0 60
0 61 75 0 75 0 0 -60 0 -60 60 0 60 0 0 61 0 62 50 -5 c28 -3 50 -1 50 3 0 5
-22 9 -50 9 l-50 0 0 90 c0 50 4 90 9 90 6 0 12 15 14 33 l4 32 1 -32 c2 -31
4 -33 42 -33 34 0 40 3 42 23 1 12 4 -21 7 -73 l6 -95 58 -3 57 -3 0 56 c0 30
5 64 12 74 9 15 9 25 0 45 -11 24 -17 26 -79 28 -63 2 -64 2 -16 5 l53 4 -34
37 c-19 20 -44 48 -55 61 -17 19 -21 21 -21 7z m-336 -128 c-6 -20 -5 -21 10
-9 10 8 16 9 16 3 0 -7 16 -11 35 -10 25 1 34 5 31 14 -3 7 -1 16 4 19 6 4 10
-5 10 -20 0 -17 7 -29 23 -35 17 -7 18 -9 5 -9 -16 -1 -18 -12 -18 -86 l0 -85
-75 0 -75 0 0 85 0 85 -45 0 -45 0 0 -85 c0 -50 -4 -85 -10 -85 -6 0 -10 35
-10 85 l0 85 -37 0 c-20 0 -33 3 -29 7 4 5 47 9 94 9 83 2 88 3 100 28 16 32
26 34 16 4z"/>
<path d="M4785 2979 c25 -23 48 -52 51 -65 6 -22 11 -24 69 -24 l63 0 5 38 c2
20 -1 44 -7 52 -6 8 0 6 12 -5 13 -11 19 -21 13 -23 -6 -2 -11 -17 -11 -33 l0
-29 65 0 65 0 0 30 c0 17 4 30 8 30 5 0 7 -13 4 -30 l-4 -30 71 0 c56 0 71 3
71 15 0 8 1 18 1 23 1 4 -9 13 -22 19 -14 7 -18 13 -9 13 18 0 30 -8 50 -34
11 -15 12 -18 1 -12 -9 6 -12 5 -9 -5 3 -8 14 -13 24 -11 10 2 39 5 64 6 111
6 100 0 100 61 l0 55 -360 0 -360 0 45 -41z"/>
<path d="M7287 2994 c-4 -4 -7 -112 -7 -241 l0 -233 160 0 160 0 -2 238 -3
237 -151 3 c-82 1 -153 -1 -157 -4z"/>
<path d="M5670 2809 l0 -121 -32 3 c-31 3 -40 -4 -32 -26 2 -5 5 -32 7 -60 3
-47 3 -47 5 13 2 59 3 62 27 62 24 0 25 -3 25 -60 l0 -60 50 0 c33 0 50 4 50
13 0 8 17 12 52 12 l53 0 3 48 c3 45 5 47 32 47 27 0 29 -2 32 -47 l3 -48 53
-3 52 -3 0 50 c0 28 5 51 10 51 6 0 10 -27 10 -60 l0 -60 40 0 c38 0 40 1 41
33 3 83 2 82 39 88 l35 6 -39 2 -39 1 5 120 5 120 -114 0 -114 0 3 -27 c3 -27
5 -28 71 -31 l67 -3 0 -89 c0 -53 -4 -90 -10 -90 -6 0 -10 35 -10 85 l0 85
-52 0 -53 0 0 -83 0 -82 -32 -3 -33 -3 0 85 0 86 -57 2 -58 1 65 6 c62 6 65 7
68 34 l3 27 -115 0 -116 0 0 -121z"/>
<path d="M4840 2785 l0 -95 -55 0 c-30 0 -55 -4 -55 -10 0 -5 4 -10 9 -10 5 0
12 -10 14 -22 4 -19 4 -18 6 5 1 26 4 28 39 25 l37 -3 -1 -57 -2 -58 69 0 69
0 2 63 1 62 6 -60 6 -60 60 0 60 0 6 60 6 60 1 -62 2 -63 65 0 65 0 0 60 0 59
108 4 107 3 -107 2 -108 2 0 95 0 95 -65 0 -65 0 -2 -97 -2 -98 -5 95 -6 95
-60 0 -60 0 -6 -95 -5 -95 -2 98 -2 97 -65 0 -65 0 0 -95z"/>
<path d="M7687 2873 c-4 -3 -7 -46 -7 -95 l0 -88 -27 0 c-17 0 -23 -3 -16 -8
6 -4 14 -34 16 -67 l3 -60 2 63 c3 80 22 82 22 2 l0 -60 69 0 c58 0 70 3 74
18 4 16 5 16 6 0 1 -15 11 -18 61 -18 l60 0 0 60 c0 33 4 60 10 60 6 0 10 -27
10 -60 l0 -60 65 0 65 0 0 60 0 59 68 4 67 3 -67 2 -68 2 0 95 0 95 -65 0 -65
0 0 -95 c0 -65 -4 -95 -11 -95 -9 0 -10 25 -6 90 7 88 6 90 -17 96 -12 3 -40
4 -62 2 l-39 -3 -6 -55 -6 -55 -1 58 -2 57 -63 0 c-35 0 -67 -3 -70 -7z"/>
<path d="M7091 2538 c-1 -17 -25 -18 -368 -18 l-368 0 1 -233 2 -232 88 -2
c49 0 106 1 127 4 l37 6 0 148 0 148 -37 4 c-21 2 4 4 55 5 67 2 98 6 108 17
8 8 15 17 14 20 -1 17 2 18 11 2 7 -12 17 -16 30 -12 10 4 19 2 19 -4 0 -5 12
-11 28 -13 l27 -3 3 -94 c2 -69 -1 -97 -10 -103 -10 -6 -10 -8 0 -8 8 0 12
-18 12 -57 l0 -58 60 3 60 4 0 148 c0 98 4 151 11 156 7 4 9 21 5 43 -4 25 -2
31 4 21 5 -8 10 -27 10 -41 0 -24 4 -26 40 -26 38 0 40 2 42 31 1 17 4 -16 7
-74 l6 -105 58 -3 57 -3 0 59 c0 32 5 63 11 69 19 19 0 74 -29 84 -15 5 -36
23 -47 39 -11 17 -24 30 -28 30 -5 0 -6 -4 -2 -9 3 -5 1 -12 -3 -15 -5 -3 -8
10 -7 29 2 23 -2 35 -10 35 -7 0 -16 6 -18 13 -3 7 -6 5 -6 -5z"/>
<path d="M4760 2495 c12 -13 27 -22 33 -18 6 3 7 1 4 -4 -9 -14 19 -37 34 -27
8 4 9 3 5 -4 -4 -6 -4 -23 0 -37 6 -25 9 -26 68 -23 58 3 61 4 64 30 3 24 0
27 -35 31 l-38 4 40 -1 c38 -1 40 -3 43 -33 l3 -33 64 0 64 0 4 33 4 32 1 -32
2 -33 63 0 c36 0 68 5 75 12 9 9 12 9 12 0 0 -7 5 -12 11 -12 5 0 7 5 4 11 -5
7 5 8 29 4 20 -4 36 -3 36 1 0 5 25 7 55 6 l55 -4 0 61 0 61 -362 0 -361 0 23
-25z"/>
<path d="M5930 2396 c0 -14 4 -27 8 -30 12 -7 14 -140 2 -170 -5 -14 -6 -26
-2 -26 4 0 7 -21 7 -47 l0 -48 53 -3 52 -3 0 140 0 140 -47 4 c-48 3 -48 3 9
5 l57 2 3 -152 3 -153 38 0 39 0 1 183 2 182 -112 0 -113 0 0 -24z"/>
<path d="M4839 2283 c-1 -49 -2 -119 -3 -158 l-1 -70 65 0 65 0 3 158 3 157
-66 0 -65 0 -1 -87z"/>
<path d="M4981 2215 l0 -156 62 3 62 3 3 153 3 152 -65 0 -66 0 1 -155z"/>
<path d="M5122 2213 l3 -158 62 -3 62 -3 3 63 c2 35 2 107 0 161 l-3 97 -65 0
-65 0 3 -157z"/>
<path d="M7680 2275 l0 -94 -27 -4 -28 -4 27 -2 c26 -1 27 -4 30 -58 l3 -58
130 3 c71 2 130 4 132 6 2 1 4 71 6 154 l4 151 -139 0 -138 0 0 -94z"/>
<path d="M7970 2210 l0 -160 65 0 65 0 0 160 0 160 -65 0 -65 0 0 -160z"/>
<path d="M6630 2210 l0 -150 45 0 44 0 3 58 c2 31 2 99 0 150 l-3 92 -45 0
-44 0 0 -150z"/>
<path d="M4980 1770 l0 -90 59 0 c69 0 71 3 71 113 l0 67 -65 0 -65 0 0 -90z"/>
<path d="M4987 1354 c-4 -4 -7 -45 -7 -91 l0 -84 63 3 62 3 0 85 0 85 -55 3
c-31 2 -59 0 -63 -4z"/>
<path d="M7828 1768 c-2 -51 -2 -121 0 -155 l3 -63 59 0 60 0 0 58 c0 31 2
101 4 155 l4 97 -63 0 -64 0 -3 -92z"/>
</g>
</svg>
